<mxfile host="app.diagrams.net" modified="2022-04-16T02:06:09.910Z" agent="5.0 (Macintosh; Intel Mac OS X 10_15_7) AppleWebKit/537.36 (KHTML, like Gecko) Chrome/100.0.4896.75 Safari/537.36" etag="ltrr2xfKZi5rX2_XKeSM" version="17.4.4" type="github">
  <diagram id="uuL9b8VZPgln4-ofKoec" name="第 1 页">
    <mxGraphModel dx="946" dy="500" grid="1" gridSize="10" guides="1" tooltips="1" connect="1" arrows="1" fold="1" page="1" pageScale="1" pageWidth="850" pageHeight="1100" math="0" shadow="0">
      <root>
        <mxCell id="0" />
        <mxCell id="1" parent="0" />
        <mxCell id="TIcReG-zYWo_SQjqcDwt-2" value="" style="rounded=1;whiteSpace=wrap;html=1;fillColor=#ffe6cc;strokeColor=#d79b00;" vertex="1" parent="1">
          <mxGeometry x="100" y="100" width="520" height="380" as="geometry" />
        </mxCell>
        <mxCell id="TIcReG-zYWo_SQjqcDwt-5" value="" style="rounded=0;whiteSpace=wrap;html=1;fillColor=#fad9d5;strokeColor=#ae4132;" vertex="1" parent="1">
          <mxGeometry x="130" y="160" width="90" height="240" as="geometry" />
        </mxCell>
        <mxCell id="TIcReG-zYWo_SQjqcDwt-6" value="&lt;b&gt;Background&lt;br&gt;&amp;nbsp;Process&lt;/b&gt;" style="text;html=1;resizable=0;autosize=1;align=center;verticalAlign=middle;points=[];fillColor=none;strokeColor=none;rounded=0;" vertex="1" parent="1">
          <mxGeometry x="130" y="160" width="90" height="30" as="geometry" />
        </mxCell>
        <mxCell id="TIcReG-zYWo_SQjqcDwt-7" value="&lt;b&gt;&lt;font style=&quot;font-size: 14px&quot;&gt;openGauss&lt;/font&gt;&lt;/b&gt;" style="text;html=1;resizable=0;autosize=1;align=center;verticalAlign=middle;points=[];fillColor=none;strokeColor=none;rounded=0;" vertex="1" parent="1">
          <mxGeometry x="330" y="115" width="90" height="20" as="geometry" />
        </mxCell>
        <mxCell id="TIcReG-zYWo_SQjqcDwt-8" value="Writer" style="rounded=1;whiteSpace=wrap;html=1;fontSize=14;fillColor=#e1d5e7;strokeColor=#9673a6;" vertex="1" parent="1">
          <mxGeometry x="135" y="200" width="80" height="35" as="geometry" />
        </mxCell>
        <mxCell id="TIcReG-zYWo_SQjqcDwt-9" value="Vacuum" style="rounded=1;whiteSpace=wrap;html=1;fontSize=14;fillColor=#e1d5e7;strokeColor=#9673a6;" vertex="1" parent="1">
          <mxGeometry x="135" y="250" width="80" height="35" as="geometry" />
        </mxCell>
        <mxCell id="TIcReG-zYWo_SQjqcDwt-10" value="Statistic" style="rounded=1;whiteSpace=wrap;html=1;fontSize=14;fillColor=#e1d5e7;strokeColor=#9673a6;" vertex="1" parent="1">
          <mxGeometry x="135" y="300" width="80" height="35" as="geometry" />
        </mxCell>
        <mxCell id="TIcReG-zYWo_SQjqcDwt-11" value="Cleanup" style="rounded=1;whiteSpace=wrap;html=1;fontSize=14;fillColor=#e1d5e7;strokeColor=#9673a6;" vertex="1" parent="1">
          <mxGeometry x="135" y="350" width="80" height="35" as="geometry" />
        </mxCell>
        <mxCell id="TIcReG-zYWo_SQjqcDwt-13" value="" style="rounded=0;whiteSpace=wrap;html=1;fillColor=#fad9d5;strokeColor=#ae4132;" vertex="1" parent="1">
          <mxGeometry x="500" y="160" width="90" height="240" as="geometry" />
        </mxCell>
        <mxCell id="TIcReG-zYWo_SQjqcDwt-14" value="" style="rounded=0;whiteSpace=wrap;html=1;fontSize=14;fillColor=#d0cee2;strokeColor=#56517e;" vertex="1" parent="1">
          <mxGeometry x="250" y="160" width="220" height="95" as="geometry" />
        </mxCell>
        <mxCell id="TIcReG-zYWo_SQjqcDwt-15" value="&lt;b&gt;Query Engine&amp;nbsp;&lt;/b&gt;" style="text;html=1;resizable=0;autosize=1;align=center;verticalAlign=middle;points=[];fillColor=none;strokeColor=none;rounded=0;" vertex="1" parent="1">
          <mxGeometry x="310" y="170" width="100" height="20" as="geometry" />
        </mxCell>
        <mxCell id="TIcReG-zYWo_SQjqcDwt-16" value="Parser" style="rounded=1;whiteSpace=wrap;html=1;fontSize=14;fillColor=#e1d5e7;strokeColor=#9673a6;" vertex="1" parent="1">
          <mxGeometry x="260" y="200" width="60" height="35" as="geometry" />
        </mxCell>
        <mxCell id="TIcReG-zYWo_SQjqcDwt-18" value="Planner" style="rounded=1;whiteSpace=wrap;html=1;fontSize=14;fillColor=#e1d5e7;strokeColor=#9673a6;" vertex="1" parent="1">
          <mxGeometry x="330" y="200" width="60" height="35" as="geometry" />
        </mxCell>
        <mxCell id="TIcReG-zYWo_SQjqcDwt-19" value="Executor" style="rounded=1;whiteSpace=wrap;html=1;fontSize=14;fillColor=#e1d5e7;strokeColor=#9673a6;" vertex="1" parent="1">
          <mxGeometry x="405" y="200" width="60" height="35" as="geometry" />
        </mxCell>
        <mxCell id="TIcReG-zYWo_SQjqcDwt-20" value="" style="rounded=0;whiteSpace=wrap;html=1;fontSize=14;fillColor=#d0cee2;strokeColor=#56517e;" vertex="1" parent="1">
          <mxGeometry x="250" y="285" width="220" height="115" as="geometry" />
        </mxCell>
        <mxCell id="TIcReG-zYWo_SQjqcDwt-21" value="Disk&lt;br&gt;Based" style="rounded=1;whiteSpace=wrap;html=1;fontSize=14;fillColor=#f8cecc;strokeColor=#b85450;" vertex="1" parent="1">
          <mxGeometry x="266" y="325" width="83" height="55" as="geometry" />
        </mxCell>
        <mxCell id="TIcReG-zYWo_SQjqcDwt-23" value="Memory&lt;br&gt;Optimized" style="rounded=1;whiteSpace=wrap;html=1;fontSize=14;fillColor=#f8cecc;strokeColor=#b85450;" vertex="1" parent="1">
          <mxGeometry x="374" y="325" width="80" height="55" as="geometry" />
        </mxCell>
        <mxCell id="TIcReG-zYWo_SQjqcDwt-24" value="&lt;b&gt;Storage Engine&amp;nbsp;&lt;/b&gt;" style="text;html=1;resizable=0;autosize=1;align=center;verticalAlign=middle;points=[];fillColor=none;strokeColor=none;rounded=0;" vertex="1" parent="1">
          <mxGeometry x="305" y="290" width="110" height="20" as="geometry" />
        </mxCell>
        <mxCell id="TIcReG-zYWo_SQjqcDwt-25" value="Index Storage" style="shape=datastore;whiteSpace=wrap;html=1;fontSize=14;fillColor=#d0cee2;strokeColor=#56517e;" vertex="1" parent="1">
          <mxGeometry x="240" y="410" width="60" height="60" as="geometry" />
        </mxCell>
        <mxCell id="TIcReG-zYWo_SQjqcDwt-26" value="&lt;b&gt;FDW&lt;/b&gt;" style="text;html=1;resizable=0;autosize=1;align=center;verticalAlign=middle;points=[];fillColor=none;strokeColor=none;rounded=0;" vertex="1" parent="1">
          <mxGeometry x="520" y="165" width="40" height="20" as="geometry" />
        </mxCell>
        <mxCell id="TIcReG-zYWo_SQjqcDwt-27" value="Log Storage" style="shape=datastore;whiteSpace=wrap;html=1;fontSize=14;fillColor=#d0cee2;strokeColor=#56517e;" vertex="1" parent="1">
          <mxGeometry x="329" y="410" width="60" height="60" as="geometry" />
        </mxCell>
        <mxCell id="TIcReG-zYWo_SQjqcDwt-28" value="Table Storage" style="shape=datastore;whiteSpace=wrap;html=1;fontSize=14;fillColor=#d0cee2;strokeColor=#56517e;" vertex="1" parent="1">
          <mxGeometry x="415" y="410" width="60" height="60" as="geometry" />
        </mxCell>
        <mxCell id="TIcReG-zYWo_SQjqcDwt-29" value="MySQL" style="rounded=1;whiteSpace=wrap;html=1;fontSize=14;fillColor=#e1d5e7;strokeColor=#9673a6;" vertex="1" parent="1">
          <mxGeometry x="505" y="200" width="80" height="35" as="geometry" />
        </mxCell>
        <mxCell id="TIcReG-zYWo_SQjqcDwt-30" value="Redis" style="rounded=1;whiteSpace=wrap;html=1;fontSize=14;fillColor=#e1d5e7;strokeColor=#9673a6;" vertex="1" parent="1">
          <mxGeometry x="505" y="250" width="80" height="35" as="geometry" />
        </mxCell>
        <mxCell id="TIcReG-zYWo_SQjqcDwt-31" value="S3" style="rounded=1;whiteSpace=wrap;html=1;fontSize=14;fillColor=#e1d5e7;strokeColor=#9673a6;" vertex="1" parent="1">
          <mxGeometry x="505" y="300" width="80" height="35" as="geometry" />
        </mxCell>
        <mxCell id="TIcReG-zYWo_SQjqcDwt-32" value="Oracle" style="rounded=1;whiteSpace=wrap;html=1;fontSize=14;fillColor=#e1d5e7;strokeColor=#9673a6;" vertex="1" parent="1">
          <mxGeometry x="505" y="350" width="80" height="35" as="geometry" />
        </mxCell>
      </root>
    </mxGraphModel>
  </diagram>
</mxfile>
